HIERARCHY
ROOT Hips
{
	OFFSET 4.671251 1.175639 2.625809
	CHANNELS 6 Xposition Yposition Zposition Zrotation Yrotation Xrotation 
	JOINT Spine
	{
		OFFSET 0.000017 8.340399 -2.713999
		CHANNELS 3 Zrotation Yrotation Xrotation
		JOINT Spine1
		{
			OFFSET -0.000003 11.909964 -2.100054
			CHANNELS 3 Zrotation Yrotation Xrotation
			JOINT Spine2
			{
				OFFSET -0.000044 12.047662 -1.054068
				CHANNELS 3 Zrotation Yrotation Xrotation
				JOINT Spine3
				{
					OFFSET -0.000016 12.093765 0.000008
					CHANNELS 3 Zrotation Yrotation Xrotation
					JOINT Neck
					{
						OFFSET -0.000051 15.549109 1.554888
						CHANNELS 3 Zrotation Yrotation Xrotation
						JOINT Neck1
						{
							OFFSET 0.000068 4.687341 0.410080
							CHANNELS 3 Zrotation Yrotation Xrotation
							JOINT Head
							{
								OFFSET 0.000076 4.633783 0.817078
								CHANNELS 3 Zrotation Yrotation Xrotation
								JOINT HeadEnd
								{
									OFFSET 0.000009 9.727766 -0.000018
									CHANNELS 3 Zrotation Yrotation Xrotation
									End Site
									{
										OFFSET 0.000000 0.000000 0.000000
									}
								}
							}
						}
					}
					JOINT RightShoulder
					{
						OFFSET 0.000043 11.106481 6.072611
						CHANNELS 3 Zrotation Yrotation Xrotation
						JOINT RightArm
						{
							OFFSET -19.427915 0.000059 -0.000012
							CHANNELS 3 Zrotation Yrotation Xrotation
							JOINT RightForeArm
							{
								OFFSET -29.350696 0.000016 0.000020
								CHANNELS 3 Zrotation Yrotation Xrotation
								JOINT RightHand
								{
									OFFSET -27.018077 -0.000014 0.000059
									CHANNELS 3 Zrotation Yrotation Xrotation
									JOINT RightHandMiddle1
									{
										OFFSET -9.244039 -0.000032 0.000028
										CHANNELS 3 Zrotation Yrotation Xrotation
										JOINT RightHandMiddle2
										{
											OFFSET -4.870021 0.000001 -0.000023
											CHANNELS 3 Zrotation Yrotation Xrotation
											JOINT RightHandMiddle3
											{
												OFFSET -3.169076 -0.000001 0.000018
												CHANNELS 3 Zrotation Yrotation Xrotation
												JOINT RightHandMiddle4
												{
													OFFSET -1.888359 -0.000001 0.000003
													CHANNELS 3 Zrotation Yrotation Xrotation
													End Site
													{
														OFFSET 0.000000 0.000000 0.000000
													}
												}
											}
										}
									}
									JOINT RightHandRing
									{
										OFFSET -0.250013 -0.250015 -0.956460
										CHANNELS 3 Zrotation Yrotation Xrotation
										JOINT RightHandRing1
										{
											OFFSET -8.140222 -0.000011 -0.734617
											CHANNELS 3 Zrotation Yrotation Xrotation
											JOINT RightHandRing2
											{
												OFFSET -4.501559 -0.000016 -0.406240
												CHANNELS 3 Zrotation Yrotation Xrotation
												JOINT RightHandRing3
												{
													OFFSET -3.068826 0.000011 -0.276940
													CHANNELS 3 Zrotation Yrotation Xrotation
													JOINT RightHandRing4
													{
														OFFSET -1.869943 -0.000025 -0.168781
														CHANNELS 3 Zrotation Yrotation Xrotation
														End Site
														{
															OFFSET 0.000000 0.000000 0.000000
														}
													}
												}
											}
										}
										JOINT RightHandPinky
										{
											OFFSET -0.163045 -0.249985 -0.975114
											CHANNELS 3 Zrotation Yrotation Xrotation
											JOINT RightHandPinky1
											{
												OFFSET -6.681447 0.000022 -1.494112
												CHANNELS 3 Zrotation Yrotation Xrotation
												JOINT RightHandPinky2
												{
													OFFSET -3.580946 0.000002 -0.800810
													CHANNELS 3 Zrotation Yrotation Xrotation
													JOINT RightHandPinky3
													{
														OFFSET -2.276526 -0.000028 -0.509081
														CHANNELS 3 Zrotation Yrotation Xrotation
														JOINT RightHandPinky4
														{
															OFFSET -1.690335 -0.000024 -0.377987
															CHANNELS 3 Zrotation Yrotation Xrotation
															End Site
															{
																OFFSET 0.000000 0.000000 0.000000
															}
														}
													}
												}
											}
										}
									}
									JOINT RightHandIndex
									{
										OFFSET -0.249991 -0.249999 0.956495
										CHANNELS 3 Zrotation Yrotation Xrotation
										JOINT RightHandIndex1
										{
											OFFSET -8.934087 0.000041 0.806263
											CHANNELS 3 Zrotation Yrotation Xrotation
											JOINT RightHandIndex2
											{
												OFFSET -4.694648 -0.000015 0.423694
												CHANNELS 3 Zrotation Yrotation Xrotation
												JOINT RightHandIndex3
												{
													OFFSET -2.811720 0.000009 0.253755
													CHANNELS 3 Zrotation Yrotation Xrotation
													JOINT RightHandIndex4
													{
														OFFSET -1.709920 -0.000015 0.154285
														CHANNELS 3 Zrotation Yrotation Xrotation
														End Site
														{
															OFFSET 0.000000 0.000000 0.000000
														}
													}
												}
											}
										}
										JOINT RightHandThumb1
										{
											OFFSET -0.162997 -0.750042 0.975083
											CHANNELS 3 Zrotation Yrotation Xrotation
											JOINT RightHandThumb2
											{
												OFFSET -5.411668 0.835510 2.244681
												CHANNELS 3 Zrotation Yrotation Xrotation
												JOINT RightHandThumb3
												{
													OFFSET -3.567133 0.550744 1.479605
													CHANNELS 3 Zrotation Yrotation Xrotation
													JOINT RightHandThumb4
													{
														OFFSET -2.150530 0.332047 0.892036
														CHANNELS 3 Zrotation Yrotation Xrotation
														End Site
														{
															OFFSET 0.000000 0.000000 0.000000
														}
													}
												}
											}
										}
									}
								}
							}
						}
					}
					JOINT LeftShoulder
					{
						OFFSET 0.000018 11.106473 6.072664
						CHANNELS 3 Zrotation Yrotation Xrotation
						JOINT LeftArm
						{
							OFFSET 19.427859 -0.000025 -0.000069
							CHANNELS 3 Zrotation Yrotation Xrotation
							JOINT LeftForeArm
							{
								OFFSET 29.350743 0.000033 0.000018
								CHANNELS 3 Zrotation Yrotation Xrotation
								JOINT LeftHand
								{
									OFFSET 27.018064 -0.000036 0.000014
									CHANNELS 3 Zrotation Yrotation Xrotation
									JOINT LeftHandMiddle1
									{
										OFFSET 9.402644 0.000026 -0.000018
										CHANNELS 3 Zrotation Yrotation Xrotation
										JOINT LeftHandMiddle2
										{
											OFFSET 4.950131 -0.000004 -0.000004
											CHANNELS 3 Zrotation Yrotation Xrotation
											JOINT LeftHandMiddle3
											{
												OFFSET 3.211962 -0.000014 0.000006
												CHANNELS 3 Zrotation Yrotation Xrotation
												JOINT LeftHandMiddle4
												{
													OFFSET 1.927618 -0.000007 -0.000010
													CHANNELS 3 Zrotation Yrotation Xrotation
													End Site
													{
														OFFSET 0.000000 0.000000 0.000000
													}
												}
											}
										}
									}
									JOINT LeftHandRing
									{
										OFFSET 0.249975 -0.250027 -0.906135
										CHANNELS 3 Zrotation Yrotation Xrotation
										JOINT LeftHandRing1
										{
											OFFSET 8.286077 0.000003 -0.747788
											CHANNELS 3 Zrotation Yrotation Xrotation
											JOINT LeftHandRing2
											{
												OFFSET 4.585509 -0.000003 -0.413812
												CHANNELS 3 Zrotation Yrotation Xrotation
												JOINT LeftHandRing3
												{
													OFFSET 3.124448 -0.000002 -0.281951
													CHANNELS 3 Zrotation Yrotation Xrotation
													JOINT LeftHandRing4
													{
														OFFSET 1.908788 -0.000009 -0.172251
														CHANNELS 3 Zrotation Yrotation Xrotation
														End Site
														{
															OFFSET 0.000000 0.000000 0.000000
														}
													}
												}
											}
										}
										JOINT LeftHandPinky
										{
											OFFSET 0.167509 -0.250005 -0.924940
											CHANNELS 3 Zrotation Yrotation Xrotation
											JOINT LeftHandPinky1
											{
												OFFSET 6.823517 0.000016 -1.525873
												CHANNELS 3 Zrotation Yrotation Xrotation
												JOINT LeftHandPinky2
												{
													OFFSET 3.642809 -0.000027 -0.814605
													CHANNELS 3 Zrotation Yrotation Xrotation
													JOINT LeftHandPinky3
													{
														OFFSET 2.333112 0.000013 -0.521766
														CHANNELS 3 Zrotation Yrotation Xrotation
														JOINT LeftHandPinky4
														{
															OFFSET 1.725445 -0.000005 -0.385868
															CHANNELS 3 Zrotation Yrotation Xrotation
															End Site
															{
																OFFSET 0.000000 0.000000 0.000000
															}
														}
													}
												}
											}
										}
									}
									JOINT LeftHandIndex
									{
										OFFSET 0.249987 -0.249985 0.906152
										CHANNELS 3 Zrotation Yrotation Xrotation
										JOINT LeftHandIndex1
										{
											OFFSET 9.087952 -0.000021 0.820177
											CHANNELS 3 Zrotation Yrotation Xrotation
											JOINT LeftHandIndex2
											{
												OFFSET 4.776550 -0.000025 0.431054
												CHANNELS 3 Zrotation Yrotation Xrotation
												JOINT LeftHandIndex3
												{
													OFFSET 2.865128 -0.000006 0.258592
													CHANNELS 3 Zrotation Yrotation Xrotation
													JOINT LeftHandIndex4
													{
														OFFSET 1.745462 -0.000002 0.157485
														CHANNELS 3 Zrotation Yrotation Xrotation
														End Site
														{
															OFFSET 0.000000 0.000000 0.000000
														}
													}
												}
											}
										}
										JOINT LeftHandThumb1
										{
											OFFSET 0.167556 -0.749976 0.924969
											CHANNELS 3 Zrotation Yrotation Xrotation
											JOINT LeftHandThumb2
											{
												OFFSET 5.551493 0.857111 2.302667
												CHANNELS 3 Zrotation Yrotation Xrotation
												JOINT LeftHandThumb3
												{
													OFFSET 3.625622 0.559749 1.503894
													CHANNELS 3 Zrotation Yrotation Xrotation
													JOINT LeftHandThumb4
													{
														OFFSET 2.195257 0.338935 0.910574
														CHANNELS 3 Zrotation Yrotation Xrotation
														End Site
														{
															OFFSET 0.000000 0.000000 0.000000
														}
													}
												}
											}
										}
									}
								}
							}
						}
					}
				}
			}
		}
	}
	JOINT RightUpLeg
	{
		OFFSET -8.786547 0.000017 0.000019
		CHANNELS 3 Zrotation Yrotation Xrotation
		JOINT RightLeg
		{
			OFFSET -0.000079 -42.170418 -0.000091
			CHANNELS 3 Zrotation Yrotation Xrotation
			JOINT RightFoot
			{
				OFFSET 0.000074 -45.949144 0.000019
				CHANNELS 3 Zrotation Yrotation Xrotation
				JOINT RightForeFoot
				{
					OFFSET -0.000016 -4.685850 -0.000017
					CHANNELS 3 Zrotation Yrotation Xrotation
					JOINT RightToeBase
					{
						OFFSET -0.000041 0.000013 18.351135
						CHANNELS 3 Zrotation Yrotation Xrotation
						JOINT RightToeBaseEnd
						{
							OFFSET 0.000036 -0.000003 6.416906
							CHANNELS 3 Zrotation Yrotation Xrotation
							End Site
							{
								OFFSET 0.000000 0.000000 0.000000
							}
						}
					}
				}
			}
		}
	}
	JOINT LeftUpLeg
	{
		OFFSET 8.786556 -0.000023 -0.000013
		CHANNELS 3 Zrotation Yrotation Xrotation
		JOINT LeftLeg
		{
			OFFSET 0.000038 -42.170440 0.000059
			CHANNELS 3 Zrotation Yrotation Xrotation
			JOINT LeftFoot
			{
				OFFSET 0.000028 -45.949184 0.000034
				CHANNELS 3 Zrotation Yrotation Xrotation
				JOINT LeftForeFoot
				{
					OFFSET 0.000029 -4.685858 0.000022
					CHANNELS 3 Zrotation Yrotation Xrotation
					JOINT LeftToeBase
					{
						OFFSET 0.000027 -0.000048 18.351062
						CHANNELS 3 Zrotation Yrotation Xrotation
						JOINT LeftToeBaseEnd
						{
							OFFSET -0.000046 -0.000021 7.522056
							CHANNELS 3 Zrotation Yrotation Xrotation
							End Site
							{
								OFFSET 0.000000 0.000000 0.000000
							}
						}
					}
				}
			}
		}
	}
}
MOTION
Frames: 4
Frame Time: 0.066667
2.421994 1.404087 -3.783611 -0.067808 22.941507 -3.395480 1.836468 -0.664291 3.595001 -0.102385 -0.025483 -1.862701 -0.143631 0.420043 0.469099 1.838872 0.729347 7.553955 8.353878 -2.565564 4.313494 -12.611068 3.339447 6.052489 -4.139663 0.853203 2.273212 0.004504 -0.001625 -0.001184 11.679140 -11.437277 -2.363600 60.940269 -4.985708 7.685019 179.998276 66.497192 130.869553 38.248005 -28.371950 -0.653755 16.807775 -6.953087 -0.003162 7.878672 0.000359 0.001307 12.622990 0.001507 0.000433 0.000261 -0.000700 0.000842 -0.996071 -1.801649 -10.008068 17.210604 -8.298030 -1.520813 16.799707 0.202333 -1.492308 11.710999 0.106082 -1.050401 -0.000735 -0.000201 0.001296 -2.401514 -4.316714 -5.257714 13.608627 -6.098575 -2.961098 26.834906 1.321465 -5.796569 20.320547 0.768459 -4.447806 -0.000232 0.000979 -0.000262 -1.552221 7.069876 -1.059688 9.909808 -4.683281 0.894377 -1.059490 0.010254 -0.094057 9.035927 -0.056598 0.813281 -0.000833 0.000722 0.000807 5.449259 11.036030 40.513031 -1.926383 1.093982 -0.625630 3.896063 -2.516873 1.150318 0.000915 -0.000625 -0.000305 -15.316531 6.407239 -1.739912 -57.414825 6.604931 24.088531 179.999863 -56.964306 139.946136 1.366997 28.025446 -0.083152 -14.117675 4.244106 0.002476 -2.044731 0.001805 0.002548 -7.991467 0.001689 -0.000120 -0.000383 -0.000507 0.000334 -0.882747 1.039829 -8.560041 -8.222247 0.852052 -0.738437 -9.578230 -0.086954 -0.861872 0.675979 -0.003388 0.061648 -0.003320 -0.000748 0.000823 -0.679027 0.353889 -10.441710 0.756364 10.421380 0.161118 -12.803341 -0.323630 -2.840985 -13.812029 -0.370339 -3.063361 0.000670 -0.001178 -0.000329 1.973359 -5.924635 -2.440051 -14.729059 1.423872 1.319491 1.528676 0.008458 -0.138121 -3.689442 0.012937 0.332291 -0.000290 0.000980 -0.000950 -10.252226 0.672477 39.306942 6.224504 2.143887 -3.043190 0.000000 0.000000 0.000000 0.001521 -0.001488 0.001581 -2.984462 -6.833825 12.530144 0.001382 0.001699 -0.045361 -0.000000 -0.000000 -0.000000 0.000000 -0.000000 -0.000000 -0.000000 0.000000 0.000000 0.000000 0.000000 0.000000 5.723966 -9.791218 9.323959 0.000925 -0.002604 -1.571499 -0.000000 0.000000 -0.000000 -0.000000 0.000000 0.000000 0.000000 0.000000 0.000000 -0.000000 0.000000 0.000000 
2.517669 1.406332 -3.851924 -0.066179 22.821548 -3.446285 1.854593 -0.670914 3.568939 -0.105110 -0.024756 -1.864674 -0.155328 0.443357 0.489857 1.802115 0.728415 7.608410 8.257028 -2.485331 4.447491 -12.596351 3.371949 5.933246 -4.118935 0.851362 2.218165 0.004274 -0.001591 -0.001404 11.577477 -11.487488 -2.357388 60.204971 -4.872240 8.645319 179.998199 67.106369 132.715378 38.674282 -28.894188 -0.714995 15.632332 -7.388603 -0.003002 7.606163 0.000386 0.001439 11.995193 0.001265 0.000308 0.000167 -0.000595 0.000912 -1.137790 -1.827570 -9.534101 15.423368 -8.440843 -1.365944 15.919987 0.189278 -1.415934 11.277043 0.099132 -1.011550 -0.000990 -0.000460 0.001427 -2.395904 -4.438736 -5.238770 12.001983 -6.285188 -2.616982 26.364906 1.295835 -5.702310 20.330013 0.781021 -4.449506 -0.000512 0.000967 -0.000385 -1.385807 7.060814 -0.788704 9.895761 -4.960497 0.893941 -1.001103 -0.001064 -0.088016 9.000448 -0.059135 0.809975 -0.001106 0.000571 0.000249 5.467953 11.131544 40.214756 -2.120300 1.540430 -0.650964 3.750291 -2.426193 1.101705 0.001031 -0.000242 -0.000663 -15.270355 6.452326 -1.744560 -56.836590 6.083291 24.051964 -179.999924 -57.069649 139.875687 -1.477308 28.284691 -0.166199 -13.605065 4.582747 0.002798 -0.697156 0.001983 0.002643 -6.734592 0.001539 -0.000279 -0.000235 -0.000428 0.000745 -0.892639 1.103031 -8.162784 -8.170723 0.601905 -0.734012 -7.712946 -0.067785 -0.695354 1.757440 -0.005872 0.159288 -0.003603 -0.000817 0.000704 -0.814988 0.365193 -10.468124 0.995493 9.942856 0.213479 -11.859362 -0.286792 -2.632835 -13.023518 -0.331446 -2.892014 0.000860 -0.001361 -0.000662 1.916031 -5.862307 -2.303409 -14.326973 1.602817 1.285025 2.265131 0.010081 -0.204080 -3.156402 0.009591 0.284500 -0.000516 0.000771 -0.000813 -10.217852 0.287826 38.759731 6.839922 1.851196 -3.294774 0.000000 0.000000 0.000000 0.001595 -0.001738 0.001716 -3.019240 -6.805678 12.538399 0.000845 0.002099 0.028069 -0.000000 -0.000000 -0.000000 -0.000000 -0.000000 -0.000000 -0.000000 0.000000 0.000000 0.000000 0.000000 0.000000 5.655260 -9.728306 9.403352 0.000971 -0.002826 -1.503461 -0.000000 0.000000 -0.000000 -0.000000 0.000000 0.000000 0.000000 -0.000000 0.000000 -0.000000 0.000000 0.000000 
2.578764 1.413133 -3.861895 -0.056642 22.700663 -3.513606 1.869114 -0.678202 3.523124 -0.109964 -0.023741 -1.870386 -0.172104 0.465102 0.504957 1.748198 0.725780 7.650313 8.156816 -2.421712 4.585339 -12.542875 3.398202 5.839339 -4.085588 0.846908 2.165529 0.003895 -0.001526 -0.001596 11.423736 -11.508210 -2.335222 58.945492 -4.500491 10.053995 179.998245 67.603806 135.029221 39.911961 -29.516815 -0.804008 15.097948 -7.622592 -0.003038 7.284389 0.000302 0.001290 11.421448 0.001269 0.000224 0.000206 -0.000488 0.001002 -1.229203 -1.811367 -9.206816 14.184547 -8.497608 -1.258195 15.081380 0.172732 -1.342957 10.817184 0.091589 -0.970377 -0.001251 -0.000784 0.001412 -2.371283 -4.483992 -5.236895 10.595167 -6.340648 -2.314541 25.830065 1.253569 -5.593906 20.193661 0.775612 -4.420692 -0.000737 0.001009 -0.000477 -1.274244 7.039287 -0.677085 10.337214 -5.250822 0.935227 -0.944638 -0.005326 -0.082649 8.947154 -0.060030 0.804867 -0.001387 0.000300 -0.000030 5.422559 11.148815 40.008877 -2.357367 1.827972 -0.714559 3.558229 -2.301668 1.043006 0.001026 0.000074 -0.000731 -15.093006 6.492707 -1.732941 -55.921627 4.833165 23.683657 179.999954 -57.219627 139.519104 -5.176179 28.458412 -0.279075 -13.249624 4.827667 0.003199 0.393182 0.002014 0.002330 -5.686503 0.001419 -0.000450 -0.000245 -0.000444 0.001184 -0.910172 1.124952 -7.820262 -8.149303 0.363230 -0.732108 -5.888890 -0.051258 -0.531844 2.691672 -0.009649 0.243709 -0.003707 -0.000848 0.000518 -0.949643 0.332520 -10.509351 1.247978 9.480164 0.269031 -10.862840 -0.250516 -2.413396 -12.365170 -0.302362 -2.748695 0.000987 -0.001772 -0.001012 1.867385 -5.786594 -2.245971 -13.961662 1.891699 1.253266 2.806269 0.011126 -0.252971 -2.774810 0.007603 0.250593 -0.000567 0.000683 -0.000590 -10.105341 0.063088 38.363213 7.372472 1.686112 -3.525246 0.000000 0.000000 0.000000 0.001618 -0.001716 0.001775 -3.065647 -6.818089 12.535680 0.000299 0.002522 0.126114 -0.000000 -0.000000 -0.000000 -0.000000 -0.000000 -0.000000 -0.000000 0.000000 0.000000 0.000000 0.000000 0.000000 5.580115 -9.648344 9.503955 0.000972 -0.003253 -1.403428 -0.000000 0.000000 -0.000000 -0.000000 0.000000 0.000000 0.000000 -0.000000 0.000000 -0.000000 0.000000 0.000000 
2.675595 1.424105 -3.870474 -0.041663 22.595840 -3.595948 1.872231 -0.684365 3.451859 -0.118027 -0.022723 -1.881600 -0.188863 0.489801 0.508865 1.695093 0.719448 7.664057 8.058579 -2.356613 4.680946 -12.442612 3.393604 5.801896 -4.042552 0.838838 2.130635 0.003310 -0.001499 -0.001612 11.172845 -11.494287 -2.288062 57.120861 -3.743402 11.711527 179.997955 67.933807 137.456451 42.229591 -30.277113 -0.932117 14.993462 -7.667937 -0.002806 7.210900 0.000190 0.001102 11.067631 0.001324 0.000153 0.000176 -0.000419 0.001056 -1.266329 -1.759438 -9.058464 13.432002 -8.479953 -1.193078 14.502481 0.163161 -1.292664 10.482487 0.086106 -0.940348 -0.001423 -0.001062 0.001306 -2.329850 -4.441057 -5.260270 9.512686 -6.365129 -2.080696 25.323080 1.214245 -5.490570 20.021042 0.765198 -4.384307 -0.000924 0.001113 -0.000548 -1.226983 7.007082 -0.697904 10.942488 -5.459348 0.990911 -0.699177 -0.007924 -0.060524 8.970782 -0.061490 0.806542 -0.001649 0.000075 -0.000124 5.332789 11.114144 39.848484 -2.650710 1.941544 -0.823842 3.404296 -2.200629 0.996557 0.001027 0.000417 -0.000752 -14.752755 6.505846 -1.698655 -54.752384 2.861675 22.906786 179.999832 -57.483006 138.755722 -9.272190 28.418123 -0.398186 -13.011996 4.989488 0.003200 1.246058 0.002026 0.001894 -4.881703 0.001362 -0.000736 -0.000392 -0.000460 0.001459 -0.936997 1.113106 -7.581744 -8.152500 0.175775 -0.732273 -4.341864 -0.036741 -0.392719 3.417290 -0.013620 0.309337 -0.003639 -0.000830 0.000366 -1.072228 0.261534 -10.548682 1.430714 9.084460 0.309288 -9.924462 -0.214784 -2.206411 -11.850511 -0.280492 -2.636339 0.001100 -0.002111 -0.001235 1.832909 -5.700923 -2.241374 -13.660177 2.191126 1.226637 3.134976 0.010393 -0.283027 -2.484451 0.006264 0.224887 -0.000613 0.000633 -0.000346 -9.965471 0.002205 38.091328 7.803184 1.604278 -3.720206 0.000000 0.000000 0.000000 0.001566 -0.001529 0.001943 -3.109470 -6.873050 12.540284 -0.000284 0.002927 0.249092 -0.000000 -0.000000 -0.000000 -0.000000 -0.000000 -0.000000 -0.000000 0.000000 0.000000 0.000000 0.000000 0.000000 5.500746 -9.572724 9.617589 0.000831 -0.003760 -1.296623 -0.000000 0.000000 -0.000000 -0.000000 0.000000 0.000000 0.000000 -0.000000 0.000000 -0.000000 0.000000 0.000000 
